<svg xmlns="http://www.w3.org/2000/svg" xmlns:xlink="http://www.w3.org/1999/xlink" width="500" zoomAndPan="magnify" viewBox="0 0 375 374.999991" height="500" preserveAspectRatio="xMidYMid meet" version="1.0"><defs><g/><clipPath id="5ba5b37294"><path d="M 142.050781 84.859375 L 232.800781 84.859375 L 232.800781 218.277344 L 142.050781 218.277344 Z M 142.050781 84.859375 " clip-rule="nonzero"/></clipPath></defs><g fill="#4e6ef2" fill-opacity="1"><g transform="translate(68.797925, 249.169306)"><g><path d="M 2.828125 0 C 2.453125 0 2.128906 -0.128906 1.859375 -0.390625 C 1.585938 -0.648438 1.453125 -0.972656 1.453125 -1.359375 L 1.453125 -12.1875 C 1.453125 -12.550781 1.585938 -12.867188 1.859375 -13.140625 C 2.128906 -13.410156 2.453125 -13.546875 2.828125 -13.546875 L 6.5625 -13.546875 C 7.519531 -13.546875 8.382812 -13.316406 9.15625 -12.859375 C 9.9375 -12.398438 10.554688 -11.78125 11.015625 -11 C 11.484375 -10.226562 11.71875 -9.363281 11.71875 -8.40625 C 11.71875 -7.46875 11.484375 -6.625 11.015625 -5.875 C 10.554688 -5.132812 9.929688 -4.546875 9.140625 -4.109375 C 8.359375 -3.679688 7.5 -3.46875 6.5625 -3.46875 L 4.234375 -3.46875 L 4.234375 -1.359375 C 4.234375 -0.984375 4.09375 -0.660156 3.8125 -0.390625 C 3.539062 -0.128906 3.210938 0 2.828125 0 Z M 4.234375 -11 L 4.234375 -6.015625 L 6.59375 -6.015625 C 7.300781 -6.015625 7.867188 -6.25 8.296875 -6.71875 C 8.734375 -7.1875 8.953125 -7.773438 8.953125 -8.484375 C 8.953125 -9.191406 8.734375 -9.785156 8.296875 -10.265625 C 7.867188 -10.753906 7.300781 -11 6.59375 -11 Z M 4.234375 -11 "/></g></g></g><g fill="#4e6ef2" fill-opacity="1"><g transform="translate(87.299647, 249.169306)"><g><path d="M 8.046875 -12.265625 L 12.375 -1.953125 C 12.519531 -1.660156 12.554688 -1.363281 12.484375 -1.0625 C 12.421875 -0.757812 12.28125 -0.503906 12.0625 -0.296875 C 11.84375 -0.0976562 11.550781 0 11.1875 0 C 10.90625 0.0078125 10.644531 -0.0546875 10.40625 -0.203125 C 10.164062 -0.359375 10 -0.570312 9.90625 -0.84375 L 9.3125 -2.390625 L 3.640625 -2.390625 L 3.046875 -0.828125 C 2.941406 -0.554688 2.773438 -0.347656 2.546875 -0.203125 C 2.316406 -0.0664062 2.0625 0 1.78125 0 C 1.257812 0 0.878906 -0.195312 0.640625 -0.59375 C 0.398438 -1 0.367188 -1.453125 0.546875 -1.953125 L 4.84375 -12.25 C 5 -12.613281 5.207031 -12.921875 5.46875 -13.171875 C 5.726562 -13.421875 6.054688 -13.546875 6.453125 -13.546875 C 6.859375 -13.546875 7.175781 -13.453125 7.40625 -13.265625 C 7.644531 -13.078125 7.859375 -12.742188 8.046875 -12.265625 Z M 6.46875 -9.78125 L 4.609375 -4.921875 L 8.328125 -4.921875 Z M 6.46875 -9.78125 "/></g></g></g><g fill="#4e6ef2" fill-opacity="1"><g transform="translate(106.562423, 249.169306)"><g><path d="M 9.578125 -4.796875 L 11.453125 -2.25 C 11.742188 -1.851562 11.878906 -1.472656 11.859375 -1.109375 C 11.835938 -0.753906 11.691406 -0.476562 11.421875 -0.28125 C 11.128906 -0.0507812 10.78125 0.0625 10.375 0.0625 C 9.976562 0.0625 9.644531 -0.117188 9.375 -0.484375 L 6.859375 -3.984375 C 6.742188 -3.960938 6.625 -3.953125 6.5 -3.953125 C 6.382812 -3.953125 6.265625 -3.953125 6.140625 -3.953125 L 4.234375 -3.953125 L 4.234375 -1.359375 C 4.234375 -0.984375 4.09375 -0.660156 3.8125 -0.390625 C 3.539062 -0.128906 3.210938 0 2.828125 0 C 2.453125 0 2.128906 -0.128906 1.859375 -0.390625 C 1.585938 -0.660156 1.453125 -0.984375 1.453125 -1.359375 L 1.453125 -12.1875 C 1.453125 -12.550781 1.585938 -12.867188 1.859375 -13.140625 C 2.128906 -13.410156 2.453125 -13.546875 2.828125 -13.546875 L 6.5625 -13.546875 C 7.5 -13.546875 8.359375 -13.328125 9.140625 -12.890625 C 9.929688 -12.453125 10.554688 -11.867188 11.015625 -11.140625 C 11.484375 -10.410156 11.71875 -9.59375 11.71875 -8.6875 C 11.71875 -7.757812 11.519531 -6.972656 11.125 -6.328125 C 10.726562 -5.691406 10.210938 -5.179688 9.578125 -4.796875 Z M 4.234375 -11 L 4.234375 -6.5 L 6.578125 -6.5 C 7.285156 -6.5 7.859375 -6.707031 8.296875 -7.125 C 8.734375 -7.539062 8.953125 -8.0625 8.953125 -8.6875 C 8.953125 -9.34375 8.734375 -9.890625 8.296875 -10.328125 C 7.867188 -10.773438 7.300781 -11 6.59375 -11 Z M 4.234375 -11 "/></g></g></g><g fill="#4e6ef2" fill-opacity="1"><g transform="translate(125.508099, 249.169306)"><g><path d="M 8.046875 -12.265625 L 12.375 -1.953125 C 12.519531 -1.660156 12.554688 -1.363281 12.484375 -1.0625 C 12.421875 -0.757812 12.28125 -0.503906 12.0625 -0.296875 C 11.84375 -0.0976562 11.550781 0 11.1875 0 C 10.90625 0.0078125 10.644531 -0.0546875 10.40625 -0.203125 C 10.164062 -0.359375 10 -0.570312 9.90625 -0.84375 L 9.3125 -2.390625 L 3.640625 -2.390625 L 3.046875 -0.828125 C 2.941406 -0.554688 2.773438 -0.347656 2.546875 -0.203125 C 2.316406 -0.0664062 2.0625 0 1.78125 0 C 1.257812 0 0.878906 -0.195312 0.640625 -0.59375 C 0.398438 -1 0.367188 -1.453125 0.546875 -1.953125 L 4.84375 -12.25 C 5 -12.613281 5.207031 -12.921875 5.46875 -13.171875 C 5.726562 -13.421875 6.054688 -13.546875 6.453125 -13.546875 C 6.859375 -13.546875 7.175781 -13.453125 7.40625 -13.265625 C 7.644531 -13.078125 7.859375 -12.742188 8.046875 -12.265625 Z M 6.46875 -9.78125 L 4.609375 -4.921875 L 8.328125 -4.921875 Z M 6.46875 -9.78125 "/></g></g></g><g fill="#4e6ef2" fill-opacity="1"><g transform="translate(144.770873, 249.169306)"><g><path d="M 7.609375 0.171875 C 6.710938 0.171875 5.859375 -0.00390625 5.046875 -0.359375 C 4.242188 -0.722656 3.53125 -1.222656 2.90625 -1.859375 C 2.28125 -2.492188 1.785156 -3.226562 1.421875 -4.0625 C 1.066406 -4.90625 0.890625 -5.800781 0.890625 -6.75 C 0.890625 -7.675781 1.0625 -8.5625 1.40625 -9.40625 C 1.75 -10.257812 2.226562 -11.007812 2.84375 -11.65625 C 3.46875 -12.300781 4.191406 -12.8125 5.015625 -13.1875 C 5.847656 -13.5625 6.738281 -13.75 7.6875 -13.75 C 8.601562 -13.75 9.421875 -13.609375 10.140625 -13.328125 C 10.859375 -13.046875 11.566406 -12.582031 12.265625 -11.9375 C 12.578125 -11.664062 12.757812 -11.351562 12.8125 -11 C 12.875 -10.644531 12.789062 -10.320312 12.5625 -10.03125 C 12.351562 -9.726562 12.050781 -9.582031 11.65625 -9.59375 C 11.269531 -9.613281 10.925781 -9.726562 10.625 -9.9375 C 10.195312 -10.289062 9.738281 -10.578125 9.25 -10.796875 C 8.769531 -11.015625 8.257812 -11.125 7.71875 -11.125 C 6.988281 -11.125 6.3125 -10.941406 5.6875 -10.578125 C 5.070312 -10.210938 4.578125 -9.703125 4.203125 -9.046875 C 3.828125 -8.390625 3.640625 -7.625 3.640625 -6.75 C 3.640625 -5.96875 3.816406 -5.25 4.171875 -4.59375 C 4.535156 -3.945312 5.023438 -3.425781 5.640625 -3.03125 C 6.253906 -2.632812 6.941406 -2.4375 7.703125 -2.4375 C 8.234375 -2.4375 8.734375 -2.5 9.203125 -2.625 C 9.679688 -2.757812 10.09375 -2.984375 10.4375 -3.296875 L 10.4375 -4.859375 L 8.6875 -4.859375 C 8.3125 -4.859375 7.992188 -4.984375 7.734375 -5.234375 C 7.472656 -5.484375 7.34375 -5.75 7.34375 -6.03125 C 7.34375 -6.394531 7.472656 -6.695312 7.734375 -6.9375 C 7.992188 -7.1875 8.3125 -7.3125 8.6875 -7.3125 L 11.609375 -7.3125 C 12.003906 -7.3125 12.335938 -7.179688 12.609375 -6.921875 C 12.890625 -6.660156 13.03125 -6.34375 13.03125 -5.96875 L 13.03125 -2.875 C 13.03125 -2.625 12.976562 -2.390625 12.875 -2.171875 C 12.78125 -1.953125 12.609375 -1.742188 12.359375 -1.546875 C 11.578125 -0.941406 10.820312 -0.503906 10.09375 -0.234375 C 9.375 0.0351562 8.546875 0.171875 7.609375 0.171875 Z M 7.609375 0.171875 "/></g></g></g><g fill="#4e6ef2" fill-opacity="1"><g transform="translate(165.027257, 249.169306)"><g><path d="M 7.890625 0.1875 C 6.929688 0.1875 6.023438 0.0078125 5.171875 -0.34375 C 4.328125 -0.707031 3.582031 -1.207031 2.9375 -1.84375 C 2.300781 -2.476562 1.800781 -3.210938 1.4375 -4.046875 C 1.070312 -4.890625 0.890625 -5.789062 0.890625 -6.75 C 0.890625 -7.707031 1.070312 -8.609375 1.4375 -9.453125 C 1.800781 -10.296875 2.300781 -11.039062 2.9375 -11.6875 C 3.582031 -12.332031 4.328125 -12.835938 5.171875 -13.203125 C 6.023438 -13.566406 6.929688 -13.75 7.890625 -13.75 C 8.835938 -13.75 9.738281 -13.566406 10.59375 -13.203125 C 11.445312 -12.835938 12.203125 -12.332031 12.859375 -11.6875 C 13.515625 -11.039062 14.023438 -10.296875 14.390625 -9.453125 C 14.765625 -8.609375 14.953125 -7.707031 14.953125 -6.75 C 14.953125 -5.789062 14.765625 -4.890625 14.390625 -4.046875 C 14.023438 -3.210938 13.515625 -2.476562 12.859375 -1.84375 C 12.203125 -1.207031 11.445312 -0.707031 10.59375 -0.34375 C 9.738281 0.0078125 8.835938 0.1875 7.890625 0.1875 Z M 7.890625 -2.40625 C 8.710938 -2.40625 9.445312 -2.59375 10.09375 -2.96875 C 10.738281 -3.34375 11.25 -3.859375 11.625 -4.515625 C 12 -5.171875 12.1875 -5.914062 12.1875 -6.75 C 12.1875 -7.59375 12 -8.34375 11.625 -9 C 11.25 -9.664062 10.738281 -10.191406 10.09375 -10.578125 C 9.445312 -10.960938 8.710938 -11.15625 7.890625 -11.15625 C 7.085938 -11.15625 6.363281 -10.960938 5.71875 -10.578125 C 5.082031 -10.191406 4.578125 -9.664062 4.203125 -9 C 3.828125 -8.34375 3.640625 -7.59375 3.640625 -6.75 C 3.640625 -5.914062 3.828125 -5.171875 4.203125 -4.515625 C 4.578125 -3.859375 5.082031 -3.34375 5.71875 -2.96875 C 6.363281 -2.59375 7.085938 -2.40625 7.890625 -2.40625 Z M 7.890625 -2.40625 "/></g></g></g><g fill="#4e6ef2" fill-opacity="1"><g transform="translate(187.186302, 249.169306)"><g><path d="M 12.09375 -13.546875 C 12.476562 -13.546875 12.804688 -13.410156 13.078125 -13.140625 C 13.347656 -12.878906 13.484375 -12.5625 13.484375 -12.1875 L 13.484375 -1.359375 C 13.484375 -1.078125 13.394531 -0.820312 13.21875 -0.59375 C 13.050781 -0.363281 12.847656 -0.191406 12.609375 -0.078125 C 12.378906 0.015625 12.125 0.03125 11.84375 -0.03125 C 11.5625 -0.09375 11.316406 -0.257812 11.109375 -0.53125 L 4.234375 -8.71875 L 4.234375 -1.359375 C 4.234375 -0.984375 4.09375 -0.660156 3.8125 -0.390625 C 3.539062 -0.128906 3.210938 0 2.828125 0 C 2.453125 0 2.128906 -0.128906 1.859375 -0.390625 C 1.585938 -0.660156 1.453125 -0.984375 1.453125 -1.359375 L 1.453125 -12.140625 C 1.453125 -12.460938 1.535156 -12.734375 1.703125 -12.953125 C 1.867188 -13.171875 2.0625 -13.332031 2.28125 -13.4375 C 2.550781 -13.550781 2.835938 -13.570312 3.140625 -13.5 C 3.441406 -13.4375 3.707031 -13.28125 3.9375 -13.03125 L 10.703125 -4.921875 L 10.703125 -12.1875 C 10.703125 -12.5625 10.835938 -12.878906 11.109375 -13.140625 C 11.390625 -13.410156 11.71875 -13.546875 12.09375 -13.546875 Z M 12.09375 -13.546875 "/></g></g></g><g fill="#4e6ef2" fill-opacity="1"><g transform="translate(208.457445, 249.169306)"><g/></g></g><g fill="#4e6ef2" fill-opacity="1"><g transform="translate(219.898194, 249.169306)"><g><path d="M 2.828125 0 C 2.453125 0 2.128906 -0.128906 1.859375 -0.390625 C 1.585938 -0.660156 1.453125 -0.984375 1.453125 -1.359375 L 1.453125 -12.1875 C 1.453125 -12.613281 1.585938 -12.945312 1.859375 -13.1875 C 2.140625 -13.4375 2.457031 -13.5625 2.8125 -13.5625 C 3 -13.5625 3.179688 -13.53125 3.359375 -13.46875 C 3.535156 -13.40625 3.691406 -13.296875 3.828125 -13.140625 L 8.140625 -8.109375 L 12.421875 -13.15625 C 12.578125 -13.3125 12.742188 -13.414062 12.921875 -13.46875 C 13.109375 -13.519531 13.269531 -13.546875 13.40625 -13.546875 C 13.789062 -13.546875 14.113281 -13.410156 14.375 -13.140625 C 14.644531 -12.878906 14.78125 -12.5625 14.78125 -12.1875 L 14.78125 -1.359375 C 14.78125 -0.984375 14.644531 -0.660156 14.375 -0.390625 C 14.113281 -0.128906 13.789062 0 13.40625 0 C 13.039062 0 12.71875 -0.128906 12.4375 -0.390625 C 12.15625 -0.660156 12.015625 -0.984375 12.015625 -1.359375 L 12.015625 -8.6875 L 9.015625 -5.078125 C 8.742188 -4.804688 8.453125 -4.671875 8.140625 -4.671875 C 7.835938 -4.671875 7.539062 -4.8125 7.25 -5.09375 L 4.234375 -8.6875 L 4.234375 -1.359375 C 4.234375 -0.984375 4.09375 -0.660156 3.8125 -0.390625 C 3.539062 -0.128906 3.210938 0 2.828125 0 Z M 2.828125 0 "/></g></g></g><g fill="#4e6ef2" fill-opacity="1"><g transform="translate(242.480053, 249.169306)"><g><path d="M 9.96875 0 L 2.75 0 C 2.394531 -0.03125 2.085938 -0.171875 1.828125 -0.421875 C 1.578125 -0.671875 1.453125 -0.984375 1.453125 -1.359375 L 1.453125 -12.171875 C 1.453125 -12.546875 1.582031 -12.867188 1.84375 -13.140625 C 2.113281 -13.410156 2.441406 -13.546875 2.828125 -13.546875 L 9.96875 -13.546875 C 10.332031 -13.546875 10.644531 -13.410156 10.90625 -13.140625 C 11.175781 -12.867188 11.3125 -12.550781 11.3125 -12.1875 C 11.3125 -11.882812 11.175781 -11.609375 10.90625 -11.359375 C 10.644531 -11.117188 10.332031 -11 9.96875 -11 L 4.234375 -11 L 4.234375 -8.078125 L 8.78125 -8.078125 C 9.175781 -8.078125 9.492188 -7.957031 9.734375 -7.71875 C 9.972656 -7.476562 10.09375 -7.191406 10.09375 -6.859375 C 10.09375 -6.503906 9.972656 -6.195312 9.734375 -5.9375 C 9.492188 -5.675781 9.175781 -5.546875 8.78125 -5.546875 L 4.234375 -5.546875 L 4.234375 -2.53125 L 9.96875 -2.53125 C 10.332031 -2.53125 10.644531 -2.40625 10.90625 -2.15625 C 11.175781 -1.90625 11.3125 -1.640625 11.3125 -1.359375 C 11.3125 -0.972656 11.175781 -0.648438 10.90625 -0.390625 C 10.644531 -0.128906 10.332031 0 9.96875 0 Z M 9.96875 0 "/></g></g></g><g fill="#4e6ef2" fill-opacity="1"><g transform="translate(260.664656, 249.169306)"><g><path d="M 2.828125 -13.546875 L 6.46875 -13.546875 C 7.40625 -13.546875 8.285156 -13.367188 9.109375 -13.015625 C 9.929688 -12.660156 10.660156 -12.164062 11.296875 -11.53125 C 11.941406 -10.90625 12.441406 -10.179688 12.796875 -9.359375 C 13.160156 -8.546875 13.34375 -7.675781 13.34375 -6.75 C 13.34375 -5.820312 13.160156 -4.945312 12.796875 -4.125 C 12.441406 -3.300781 11.941406 -2.582031 11.296875 -1.96875 C 10.660156 -1.363281 9.929688 -0.882812 9.109375 -0.53125 C 8.285156 -0.175781 7.40625 0 6.46875 0 L 2.828125 0 C 2.453125 0 2.128906 -0.128906 1.859375 -0.390625 C 1.585938 -0.660156 1.453125 -0.984375 1.453125 -1.359375 L 1.453125 -12.1875 C 1.453125 -12.5625 1.585938 -12.878906 1.859375 -13.140625 C 2.128906 -13.410156 2.453125 -13.546875 2.828125 -13.546875 Z M 4.234375 -2.53125 L 6.53125 -2.53125 C 7.34375 -2.53125 8.050781 -2.710938 8.65625 -3.078125 C 9.269531 -3.453125 9.742188 -3.957031 10.078125 -4.59375 C 10.421875 -5.238281 10.59375 -5.960938 10.59375 -6.765625 C 10.59375 -7.566406 10.421875 -8.285156 10.078125 -8.921875 C 9.742188 -9.554688 9.269531 -10.0625 8.65625 -10.4375 C 8.050781 -10.8125 7.34375 -11 6.53125 -11 L 4.234375 -11 Z M 4.234375 -2.53125 "/></g></g></g><g fill="#4e6ef2" fill-opacity="1"><g transform="translate(281.238156, 249.169306)"><g><path d="M 2.828125 0 C 2.453125 0 2.128906 -0.128906 1.859375 -0.390625 C 1.585938 -0.660156 1.453125 -0.984375 1.453125 -1.359375 L 1.453125 -12.1875 C 1.453125 -12.5625 1.585938 -12.878906 1.859375 -13.140625 C 2.128906 -13.410156 2.453125 -13.546875 2.828125 -13.546875 C 3.210938 -13.546875 3.539062 -13.410156 3.8125 -13.140625 C 4.09375 -12.878906 4.234375 -12.5625 4.234375 -12.1875 L 4.234375 -1.359375 C 4.234375 -0.984375 4.09375 -0.660156 3.8125 -0.390625 C 3.539062 -0.128906 3.210938 0 2.828125 0 Z M 2.828125 0 "/></g></g></g><g fill="#4e6ef2" fill-opacity="1"><g transform="translate(293.27084, 249.169306)"><g><path d="M 8.046875 -12.265625 L 12.375 -1.953125 C 12.519531 -1.660156 12.554688 -1.363281 12.484375 -1.0625 C 12.421875 -0.757812 12.28125 -0.503906 12.0625 -0.296875 C 11.84375 -0.0976562 11.550781 0 11.1875 0 C 10.90625 0.0078125 10.644531 -0.0546875 10.40625 -0.203125 C 10.164062 -0.359375 10 -0.570312 9.90625 -0.84375 L 9.3125 -2.390625 L 3.640625 -2.390625 L 3.046875 -0.828125 C 2.941406 -0.554688 2.773438 -0.347656 2.546875 -0.203125 C 2.316406 -0.0664062 2.0625 0 1.78125 0 C 1.257812 0 0.878906 -0.195312 0.640625 -0.59375 C 0.398438 -1 0.367188 -1.453125 0.546875 -1.953125 L 4.84375 -12.25 C 5 -12.613281 5.207031 -12.921875 5.46875 -13.171875 C 5.726562 -13.421875 6.054688 -13.546875 6.453125 -13.546875 C 6.859375 -13.546875 7.175781 -13.453125 7.40625 -13.265625 C 7.644531 -13.078125 7.859375 -12.742188 8.046875 -12.265625 Z M 6.46875 -9.78125 L 4.609375 -4.921875 L 8.328125 -4.921875 Z M 6.46875 -9.78125 "/></g></g></g><g clip-path="url(#5ba5b37294)"><path fill="#4e6ef2" d="M 207.070312 112.371094 C 197.230469 106.851562 187.226562 101.171875 177.574219 95.464844 L 168.773438 90.289062 L 149.996094 101.144531 L 163.4375 108.90625 L 190.1875 124.425781 L 190.347656 124.425781 L 206.5625 133.734375 L 211.578125 130.988281 L 211.738281 130.828125 L 225.367188 123.066406 Z M 231.394531 152.722656 L 211.390625 164.273438 L 207.761719 166.511719 L 207.605469 166.511719 L 203.976562 168.59375 L 197.761719 172.21875 L 197.601562 172.378906 L 195.175781 173.765625 C 195.175781 187.742188 195.175781 201.691406 195.175781 215.851562 C 195.175781 216.199219 195.015625 216.703125 194.828125 217.050781 C 194.136719 218.25 192.589844 218.597656 191.386719 217.90625 L 167.757812 204.277344 C 166.90625 203.929688 166.371094 203.078125 166.371094 202.035156 C 166.371094 197.210938 166.371094 192.382812 166.371094 187.554688 L 143.78125 174.433594 C 142.582031 173.738281 142.050781 172.191406 142.742188 170.992188 C 143.089844 170.644531 143.4375 170.300781 143.78125 169.953125 L 153.785156 164.273438 L 166.371094 157.019531 L 166.371094 130.988281 C 166.371094 130.480469 166.371094 130.136719 166.71875 129.601562 C 167.414062 128.402344 168.800781 128.054688 170 128.746094 L 192.75 141.84375 L 201.550781 136.667969 L 187.949219 128.90625 L 187.789062 128.746094 L 160.878906 113.226562 L 143.78125 103.386719 C 143.4375 103.226562 143.089844 102.878906 142.742188 102.34375 C 142.050781 101.304688 142.582031 99.757812 143.78125 99.066406 L 167.414062 85.304688 C 168.265625 84.796875 169.144531 84.796875 170 85.304688 L 180.160156 91.171875 L 187.574219 95.492188 L 231.554688 120.828125 L 231.714844 120.828125 L 231.714844 120.988281 L 232.03125 120.988281 L 232.03125 121.148438 L 232.191406 121.148438 L 232.191406 121.308594 L 232.351562 121.308594 L 232.351562 121.628906 L 232.511719 121.628906 L 232.511719 121.945312 L 232.671875 121.945312 L 232.671875 122.425781 L 232.832031 122.425781 L 232.832031 150.324219 C 232.941406 151.496094 232.246094 152.378906 231.394531 152.722656 Z M 208.964844 159.953125 L 227.765625 149.097656 L 227.765625 127.359375 L 214.136719 135.121094 L 214.136719 135.28125 L 190.1875 149.097656 L 187.441406 150.644531 L 187.28125 150.804688 L 185.894531 151.65625 L 170.347656 160.644531 C 170.1875 160.644531 170 160.644531 169.839844 160.804688 L 156.398438 168.566406 L 150.023438 172.191406 L 168.824219 183.046875 L 191.414062 170.113281 L 191.574219 170.113281 L 195.015625 168.03125 L 195.175781 167.871094 L 201.550781 164.246094 L 205.175781 162.164062 L 205.335938 162.003906 Z M 190.1875 176.671875 L 179.148438 182.886719 L 171.386719 187.554688 C 171.386719 191.875 171.386719 196.167969 171.386719 200.488281 L 190.1875 211.34375 C 190.1875 199.796875 190.1875 188.25 190.1875 176.671875 Z M 187.761719 144.777344 L 171.386719 135.308594 L 171.386719 154.109375 L 183.28125 147.203125 L 184.667969 146.351562 L 184.828125 146.351562 Z M 187.761719 144.777344 " fill-opacity="1" fill-rule="nonzero"/></g></svg>